<mxfile host="app.diagrams.net" modified="2021-10-21T10:57:02.735Z" agent="5.0 (Macintosh; Intel Mac OS X 10_15_7) AppleWebKit/537.36 (KHTML, like Gecko) Chrome/94.0.4606.81 Safari/537.36" etag="VZM3t_LVyNjhua1i46Qu" version="15.5.6" type="github">
  <diagram id="kgpKYQtTHZ0yAKxKKP6v" name="Page-1">
    <mxGraphModel dx="1581" dy="873" grid="1" gridSize="10" guides="1" tooltips="1" connect="1" arrows="1" fold="1" page="1" pageScale="1" pageWidth="850" pageHeight="1100" math="0" shadow="0">
      <root>
        <mxCell id="0" />
        <mxCell id="1" parent="0" />
        <mxCell id="3nuBFxr9cyL0pnOWT2aG-1" value="gdmall_auction_syn" style="shape=umlLifeline;perimeter=lifelinePerimeter;container=1;collapsible=0;recursiveResize=0;rounded=0;shadow=0;strokeWidth=1;" parent="1" vertex="1">
          <mxGeometry x="195" y="100" width="115" height="310" as="geometry" />
        </mxCell>
        <mxCell id="3nuBFxr9cyL0pnOWT2aG-2" value="" style="points=[];perimeter=orthogonalPerimeter;rounded=0;shadow=0;strokeWidth=1;" parent="3nuBFxr9cyL0pnOWT2aG-1" vertex="1">
          <mxGeometry x="45" y="70" width="10" height="230" as="geometry" />
        </mxCell>
        <mxCell id="u7pCDF6_uqxXdPKDrsPi-18" value="校验&amp;nbsp;&lt;span style=&quot;color: rgb(6 , 125 , 23) ; font-family: &amp;#34;jetbrains mono&amp;#34; , monospace ; font-size: 9.8pt&quot;&gt;/recharge_check&lt;/span&gt;" style="endArrow=classic;html=1;rounded=0;exitX=1.2;exitY=0.063;exitDx=0;exitDy=0;exitPerimeter=0;entryX=1.2;entryY=0.184;entryDx=0;entryDy=0;entryPerimeter=0;" edge="1" parent="3nuBFxr9cyL0pnOWT2aG-1">
          <mxGeometry width="50" height="50" relative="1" as="geometry">
            <mxPoint x="57" y="89.94000000000005" as="sourcePoint" />
            <mxPoint x="57" y="135.91999999999996" as="targetPoint" />
            <Array as="points">
              <mxPoint x="125" y="90" />
              <mxPoint x="125" y="136" />
            </Array>
          </mxGeometry>
        </mxCell>
        <mxCell id="3nuBFxr9cyL0pnOWT2aG-5" value="CGWeb" style="shape=umlLifeline;perimeter=lifelinePerimeter;container=1;collapsible=0;recursiveResize=0;rounded=0;shadow=0;strokeWidth=1;" parent="1" vertex="1">
          <mxGeometry x="460" y="100" width="125" height="850" as="geometry" />
        </mxCell>
        <mxCell id="3nuBFxr9cyL0pnOWT2aG-6" value="" style="points=[];perimeter=orthogonalPerimeter;rounded=0;shadow=0;strokeWidth=1;" parent="3nuBFxr9cyL0pnOWT2aG-5" vertex="1">
          <mxGeometry x="45" y="80" width="10" height="780" as="geometry" />
        </mxCell>
        <mxCell id="u7pCDF6_uqxXdPKDrsPi-22" value="生成二维码展示，待用户付款" style="verticalAlign=bottom;endArrow=open;dashed=1;endSize=8;shadow=0;strokeWidth=1;entryX=1.3;entryY=0.833;entryDx=0;entryDy=0;entryPerimeter=0;" edge="1" parent="3nuBFxr9cyL0pnOWT2aG-5">
          <mxGeometry relative="1" as="geometry">
            <mxPoint x="-357" y="429.047" as="targetPoint" />
            <mxPoint x="40" y="429" as="sourcePoint" />
          </mxGeometry>
        </mxCell>
        <mxCell id="u7pCDF6_uqxXdPKDrsPi-36" value="保存回调记录，PayLog记录状态更新&amp;nbsp;&lt;span style=&quot;color: rgb(8 , 8 , 8) ; font-family: &amp;#34;jetbrains mono&amp;#34; , monospace ; font-size: 9.8pt&quot;&gt;setPaidFlag(&lt;/span&gt;&lt;span style=&quot;font-family: &amp;#34;jetbrains mono&amp;#34; , monospace ; font-size: 9.8pt ; color: rgb(0 , 51 , 179)&quot;&gt;true&lt;/span&gt;&lt;span style=&quot;color: rgb(8 , 8 , 8) ; font-family: &amp;#34;jetbrains mono&amp;#34; , monospace ; font-size: 9.8pt&quot;&gt;)&lt;/span&gt;" style="endArrow=classic;html=1;rounded=0;" edge="1" parent="3nuBFxr9cyL0pnOWT2aG-5" source="3nuBFxr9cyL0pnOWT2aG-5">
          <mxGeometry width="50" height="50" relative="1" as="geometry">
            <mxPoint x="109" y="610" as="sourcePoint" />
            <mxPoint x="63" y="656" as="targetPoint" />
            <Array as="points">
              <mxPoint x="177" y="610.06" />
              <mxPoint x="177" y="656.06" />
            </Array>
          </mxGeometry>
        </mxCell>
        <mxCell id="u7pCDF6_uqxXdPKDrsPi-1" value="Actor" style="shape=umlActor;verticalLabelPosition=bottom;verticalAlign=top;html=1;outlineConnect=0;" vertex="1" parent="1">
          <mxGeometry x="80" y="140" width="30" height="60" as="geometry" />
        </mxCell>
        <mxCell id="3nuBFxr9cyL0pnOWT2aG-3" value="1. 用户发起充值" style="verticalAlign=bottom;startArrow=oval;endArrow=block;startSize=8;shadow=0;strokeWidth=1;" parent="1" target="3nuBFxr9cyL0pnOWT2aG-2" edge="1" source="u7pCDF6_uqxXdPKDrsPi-1">
          <mxGeometry relative="1" as="geometry">
            <mxPoint x="180" y="180" as="sourcePoint" />
          </mxGeometry>
        </mxCell>
        <mxCell id="u7pCDF6_uqxXdPKDrsPi-10" value="" style="points=[];perimeter=orthogonalPerimeter;rounded=0;shadow=0;strokeWidth=1;" vertex="1" parent="1">
          <mxGeometry x="90" y="191" width="10" height="799" as="geometry" />
        </mxCell>
        <mxCell id="u7pCDF6_uqxXdPKDrsPi-14" value="校验成功，展示充值界面" style="verticalAlign=bottom;endArrow=open;dashed=1;endSize=8;shadow=0;strokeWidth=1;" edge="1" parent="1">
          <mxGeometry relative="1" as="geometry">
            <mxPoint x="100" y="256" as="targetPoint" />
            <mxPoint x="240" y="256" as="sourcePoint" />
          </mxGeometry>
        </mxCell>
        <mxCell id="u7pCDF6_uqxXdPKDrsPi-15" value="2. 输入金额，下单" style="verticalAlign=bottom;startArrow=oval;endArrow=block;startSize=8;shadow=0;strokeWidth=1;" edge="1" parent="1">
          <mxGeometry relative="1" as="geometry">
            <mxPoint x="110" y="300" as="sourcePoint" />
            <mxPoint x="240" y="300" as="targetPoint" />
          </mxGeometry>
        </mxCell>
        <mxCell id="u7pCDF6_uqxXdPKDrsPi-17" value="支付确认，选择付款方式" style="verticalAlign=bottom;endArrow=open;dashed=1;endSize=8;shadow=0;strokeWidth=1;" edge="1" parent="1">
          <mxGeometry relative="1" as="geometry">
            <mxPoint x="100" y="391" as="targetPoint" />
            <mxPoint x="240" y="391" as="sourcePoint" />
          </mxGeometry>
        </mxCell>
        <mxCell id="u7pCDF6_uqxXdPKDrsPi-19" value="下单&amp;nbsp;&lt;span style=&quot;color: rgb(6 , 125 , 23) ; font-family: &amp;#34;jetbrains mono&amp;#34; , monospace ; font-size: 9.8pt&quot;&gt;/recharge 生成订单号&lt;/span&gt;" style="endArrow=classic;html=1;rounded=0;exitX=1.2;exitY=0.063;exitDx=0;exitDy=0;exitPerimeter=0;entryX=1.2;entryY=0.184;entryDx=0;entryDy=0;entryPerimeter=0;" edge="1" parent="1">
          <mxGeometry width="50" height="50" relative="1" as="geometry">
            <mxPoint x="254" y="314.94000000000005" as="sourcePoint" />
            <mxPoint x="254" y="360.91999999999996" as="targetPoint" />
            <Array as="points">
              <mxPoint x="322" y="315" />
              <mxPoint x="322" y="361" />
            </Array>
          </mxGeometry>
        </mxCell>
        <mxCell id="u7pCDF6_uqxXdPKDrsPi-20" value="3. 用户选择扫码支付，点支付" style="verticalAlign=bottom;startArrow=oval;endArrow=block;startSize=8;shadow=0;strokeWidth=1;" edge="1" parent="1">
          <mxGeometry relative="1" as="geometry">
            <mxPoint x="110" y="440" as="sourcePoint" />
            <mxPoint x="510" y="440" as="targetPoint" />
          </mxGeometry>
        </mxCell>
        <mxCell id="u7pCDF6_uqxXdPKDrsPi-23" value="" style="endArrow=classic;html=1;rounded=0;" edge="1" parent="1" target="u7pCDF6_uqxXdPKDrsPi-25">
          <mxGeometry width="50" height="50" relative="1" as="geometry">
            <mxPoint x="522" y="456.05999999999995" as="sourcePoint" />
            <mxPoint x="790" y="456" as="targetPoint" />
            <Array as="points" />
          </mxGeometry>
        </mxCell>
        <mxCell id="u7pCDF6_uqxXdPKDrsPi-28" value="/payment/checkAndPay 调用银联生成付款二维码" style="edgeLabel;html=1;align=center;verticalAlign=middle;resizable=0;points=[];" vertex="1" connectable="0" parent="u7pCDF6_uqxXdPKDrsPi-23">
          <mxGeometry x="0.0069" y="4" relative="1" as="geometry">
            <mxPoint x="-3" y="-8" as="offset" />
          </mxGeometry>
        </mxCell>
        <mxCell id="u7pCDF6_uqxXdPKDrsPi-24" value="第三方支付（银联）" style="shape=umlLifeline;perimeter=lifelinePerimeter;container=1;collapsible=0;recursiveResize=0;rounded=0;shadow=0;strokeWidth=1;" vertex="1" parent="1">
          <mxGeometry x="750" y="100" width="125" height="600" as="geometry" />
        </mxCell>
        <mxCell id="u7pCDF6_uqxXdPKDrsPi-25" value="" style="points=[];perimeter=orthogonalPerimeter;rounded=0;shadow=0;strokeWidth=1;" vertex="1" parent="u7pCDF6_uqxXdPKDrsPi-24">
          <mxGeometry x="45" y="80" width="10" height="520" as="geometry" />
        </mxCell>
        <mxCell id="u7pCDF6_uqxXdPKDrsPi-29" value="生成二维码展示，待用户付款" style="verticalAlign=bottom;endArrow=open;dashed=1;endSize=8;shadow=0;strokeWidth=1;entryX=1.3;entryY=0.833;entryDx=0;entryDy=0;entryPerimeter=0;" edge="1" parent="u7pCDF6_uqxXdPKDrsPi-24">
          <mxGeometry relative="1" as="geometry">
            <mxPoint x="-230" y="390.047" as="targetPoint" />
            <mxPoint x="40" y="390" as="sourcePoint" />
          </mxGeometry>
        </mxCell>
        <mxCell id="u7pCDF6_uqxXdPKDrsPi-30" value="4. 用户向第三方支付扫码付款" style="verticalAlign=bottom;startArrow=oval;endArrow=block;startSize=8;shadow=0;strokeWidth=1;" edge="1" parent="1" target="u7pCDF6_uqxXdPKDrsPi-24">
          <mxGeometry relative="1" as="geometry">
            <mxPoint x="100" y="610" as="sourcePoint" />
            <mxPoint x="500" y="610" as="targetPoint" />
          </mxGeometry>
        </mxCell>
        <mxCell id="u7pCDF6_uqxXdPKDrsPi-32" value="" style="endArrow=classic;html=1;rounded=0;exitX=0.504;exitY=0.977;exitDx=0;exitDy=0;exitPerimeter=0;" edge="1" parent="1" source="u7pCDF6_uqxXdPKDrsPi-24">
          <mxGeometry width="50" height="50" relative="1" as="geometry">
            <mxPoint x="470" y="550" as="sourcePoint" />
            <mxPoint x="523" y="686" as="targetPoint" />
          </mxGeometry>
        </mxCell>
        <mxCell id="u7pCDF6_uqxXdPKDrsPi-35" value="银联支付结果回调&amp;nbsp;&lt;span style=&quot;color: rgb(6 , 125 , 23) ; background-color: rgb(255 , 255 , 255) ; font-family: &amp;#34;jetbrains mono&amp;#34; , monospace ; font-size: 9.8pt&quot;&gt;/unionpay/unionpayBack&lt;/span&gt;" style="text;html=1;align=center;verticalAlign=middle;resizable=0;points=[];autosize=1;strokeColor=none;fillColor=none;" vertex="1" parent="1">
          <mxGeometry x="513" y="664" width="290" height="20" as="geometry" />
        </mxCell>
        <mxCell id="u7pCDF6_uqxXdPKDrsPi-37" value="CGWebMgr" style="shape=umlLifeline;perimeter=lifelinePerimeter;container=1;collapsible=0;recursiveResize=0;rounded=0;shadow=0;strokeWidth=1;" vertex="1" parent="1">
          <mxGeometry x="970" y="100" width="125" height="850" as="geometry" />
        </mxCell>
        <mxCell id="u7pCDF6_uqxXdPKDrsPi-38" value="" style="points=[];perimeter=orthogonalPerimeter;rounded=0;shadow=0;strokeWidth=1;" vertex="1" parent="u7pCDF6_uqxXdPKDrsPi-37">
          <mxGeometry x="45" y="80" width="10" height="770" as="geometry" />
        </mxCell>
        <mxCell id="u7pCDF6_uqxXdPKDrsPi-49" value="返回状态 “S” 表示成功" style="verticalAlign=bottom;endArrow=open;dashed=1;endSize=8;shadow=0;strokeWidth=1;" edge="1" parent="u7pCDF6_uqxXdPKDrsPi-37">
          <mxGeometry relative="1" as="geometry">
            <mxPoint x="60" y="790" as="targetPoint" />
            <mxPoint x="305" y="790" as="sourcePoint" />
          </mxGeometry>
        </mxCell>
        <mxCell id="u7pCDF6_uqxXdPKDrsPi-41" value="" style="endArrow=classic;html=1;rounded=0;" edge="1" parent="1" source="3nuBFxr9cyL0pnOWT2aG-5">
          <mxGeometry width="50" height="50" relative="1" as="geometry">
            <mxPoint x="530" y="815" as="sourcePoint" />
            <mxPoint x="1032" y="815" as="targetPoint" />
            <Array as="points" />
          </mxGeometry>
        </mxCell>
        <mxCell id="u7pCDF6_uqxXdPKDrsPi-42" value="调用SAP进行保证金收款&amp;nbsp;/sap_interface/onlinePaymentOrDepositReceipt&amp;nbsp;" style="edgeLabel;html=1;align=center;verticalAlign=middle;resizable=0;points=[];" vertex="1" connectable="0" parent="u7pCDF6_uqxXdPKDrsPi-41">
          <mxGeometry x="0.0069" y="4" relative="1" as="geometry">
            <mxPoint x="-3" y="-8" as="offset" />
          </mxGeometry>
        </mxCell>
        <mxCell id="u7pCDF6_uqxXdPKDrsPi-43" value="SAP处理结果" style="verticalAlign=bottom;endArrow=open;dashed=1;endSize=8;shadow=0;strokeWidth=1;" edge="1" parent="1">
          <mxGeometry relative="1" as="geometry">
            <mxPoint x="522" y="922" as="targetPoint" />
            <mxPoint x="1027" y="922" as="sourcePoint" />
          </mxGeometry>
        </mxCell>
        <mxCell id="u7pCDF6_uqxXdPKDrsPi-44" value="充值成功" style="verticalAlign=bottom;endArrow=open;dashed=1;endSize=8;shadow=0;strokeWidth=1;entryX=1.3;entryY=0.833;entryDx=0;entryDy=0;entryPerimeter=0;" edge="1" parent="1">
          <mxGeometry relative="1" as="geometry">
            <mxPoint x="110" y="950.047" as="targetPoint" />
            <mxPoint x="507" y="950" as="sourcePoint" />
          </mxGeometry>
        </mxCell>
        <mxCell id="u7pCDF6_uqxXdPKDrsPi-45" value="SAP" style="shape=umlLifeline;perimeter=lifelinePerimeter;container=1;collapsible=0;recursiveResize=0;rounded=0;shadow=0;strokeWidth=1;" vertex="1" parent="1">
          <mxGeometry x="1210" y="100" width="125" height="810" as="geometry" />
        </mxCell>
        <mxCell id="u7pCDF6_uqxXdPKDrsPi-46" value="" style="points=[];perimeter=orthogonalPerimeter;rounded=0;shadow=0;strokeWidth=1;" vertex="1" parent="u7pCDF6_uqxXdPKDrsPi-45">
          <mxGeometry x="45" y="80" width="10" height="730" as="geometry" />
        </mxCell>
        <mxCell id="u7pCDF6_uqxXdPKDrsPi-47" value="" style="endArrow=classic;html=1;rounded=0;exitX=0.512;exitY=0.942;exitDx=0;exitDy=0;exitPerimeter=0;entryX=0.5;entryY=0.907;entryDx=0;entryDy=0;entryPerimeter=0;" edge="1" parent="1">
          <mxGeometry width="50" height="50" relative="1" as="geometry">
            <mxPoint x="1034" y="859.02" as="sourcePoint" />
            <mxPoint x="1260" y="859.1100000000001" as="targetPoint" />
          </mxGeometry>
        </mxCell>
        <mxCell id="u7pCDF6_uqxXdPKDrsPi-48" value="&lt;pre style=&quot;background-color: #ffffff ; color: #080808 ; font-family: &amp;#34;jetbrains mono&amp;#34; , monospace ; font-size: 9.8pt&quot;&gt;&lt;span style=&quot;color: #000000&quot;&gt;stub&lt;/span&gt;.ZRFC_GW_2_SAP_HPFF_BZJSK&lt;/pre&gt;" style="text;html=1;align=center;verticalAlign=middle;resizable=0;points=[];autosize=1;strokeColor=none;fillColor=none;" vertex="1" parent="1">
          <mxGeometry x="1030" y="820" width="240" height="50" as="geometry" />
        </mxCell>
        <mxCell id="u7pCDF6_uqxXdPKDrsPi-51" value="gdmall_auction_syn" style="shape=umlLifeline;perimeter=lifelinePerimeter;container=1;collapsible=0;recursiveResize=0;rounded=0;shadow=0;strokeWidth=1;" vertex="1" parent="1">
          <mxGeometry x="205" y="1150" width="115" height="310" as="geometry" />
        </mxCell>
        <mxCell id="u7pCDF6_uqxXdPKDrsPi-52" value="" style="points=[];perimeter=orthogonalPerimeter;rounded=0;shadow=0;strokeWidth=1;" vertex="1" parent="u7pCDF6_uqxXdPKDrsPi-51">
          <mxGeometry x="45" y="70" width="10" height="230" as="geometry" />
        </mxCell>
        <mxCell id="u7pCDF6_uqxXdPKDrsPi-53" value="校验&amp;nbsp;&lt;span style=&quot;color: rgb(6 , 125 , 23) ; font-family: &amp;#34;jetbrains mono&amp;#34; , monospace ; font-size: 9.8pt&quot;&gt;/recharge_check&lt;/span&gt;" style="endArrow=classic;html=1;rounded=0;exitX=1.2;exitY=0.063;exitDx=0;exitDy=0;exitPerimeter=0;entryX=1.2;entryY=0.184;entryDx=0;entryDy=0;entryPerimeter=0;" edge="1" parent="u7pCDF6_uqxXdPKDrsPi-51">
          <mxGeometry width="50" height="50" relative="1" as="geometry">
            <mxPoint x="57" y="89.94000000000005" as="sourcePoint" />
            <mxPoint x="57" y="135.91999999999996" as="targetPoint" />
            <Array as="points">
              <mxPoint x="125" y="90" />
              <mxPoint x="125" y="136" />
            </Array>
          </mxGeometry>
        </mxCell>
        <mxCell id="u7pCDF6_uqxXdPKDrsPi-54" value="CGWeb" style="shape=umlLifeline;perimeter=lifelinePerimeter;container=1;collapsible=0;recursiveResize=0;rounded=0;shadow=0;strokeWidth=1;" vertex="1" parent="1">
          <mxGeometry x="470" y="1150" width="200" height="940" as="geometry" />
        </mxCell>
        <mxCell id="u7pCDF6_uqxXdPKDrsPi-55" value="" style="points=[];perimeter=orthogonalPerimeter;rounded=0;shadow=0;strokeWidth=1;" vertex="1" parent="u7pCDF6_uqxXdPKDrsPi-54">
          <mxGeometry x="89" y="80" width="10" height="860" as="geometry" />
        </mxCell>
        <mxCell id="u7pCDF6_uqxXdPKDrsPi-56" value="生成二维码展示，待用户付款" style="verticalAlign=bottom;endArrow=open;dashed=1;endSize=8;shadow=0;strokeWidth=1;entryX=1.3;entryY=0.833;entryDx=0;entryDy=0;entryPerimeter=0;" edge="1" parent="u7pCDF6_uqxXdPKDrsPi-54" source="u7pCDF6_uqxXdPKDrsPi-54">
          <mxGeometry relative="1" as="geometry">
            <mxPoint x="-357" y="429.047" as="targetPoint" />
            <mxPoint x="40" y="429" as="sourcePoint" />
          </mxGeometry>
        </mxCell>
        <mxCell id="u7pCDF6_uqxXdPKDrsPi-57" value="保存回调记录，PayLog记录状态更新&amp;nbsp;&lt;span style=&quot;color: rgb(8 , 8 , 8) ; font-family: &amp;#34;jetbrains mono&amp;#34; , monospace ; font-size: 9.8pt&quot;&gt;setPaidFlag(&lt;/span&gt;&lt;span style=&quot;font-family: &amp;#34;jetbrains mono&amp;#34; , monospace ; font-size: 9.8pt ; color: rgb(0 , 51 , 179)&quot;&gt;true&lt;/span&gt;&lt;span style=&quot;color: rgb(8 , 8 , 8) ; font-family: &amp;#34;jetbrains mono&amp;#34; , monospace ; font-size: 9.8pt&quot;&gt;)&lt;/span&gt;" style="endArrow=classic;html=1;rounded=0;" edge="1" parent="u7pCDF6_uqxXdPKDrsPi-54">
          <mxGeometry width="50" height="50" relative="1" as="geometry">
            <mxPoint x="99.16666666666652" y="612.06" as="sourcePoint" />
            <mxPoint x="99" y="680" as="targetPoint" />
            <Array as="points">
              <mxPoint x="177" y="612.06" />
              <mxPoint x="177" y="680" />
            </Array>
          </mxGeometry>
        </mxCell>
        <mxCell id="u7pCDF6_uqxXdPKDrsPi-91" value="switch(orderType) &lt;br&gt;case 1: 充值保证金&lt;br&gt;case 2: 支付拍品款&lt;br&gt;case 3: 支付物流款 （待实现）" style="text;html=1;strokeColor=#FF0000;fillColor=none;align=center;verticalAlign=middle;whiteSpace=wrap;rounded=0;" vertex="1" parent="u7pCDF6_uqxXdPKDrsPi-54">
          <mxGeometry x="-120" y="660" width="190" height="85" as="geometry" />
        </mxCell>
        <mxCell id="u7pCDF6_uqxXdPKDrsPi-58" value="Actor" style="shape=umlActor;verticalLabelPosition=bottom;verticalAlign=top;html=1;outlineConnect=0;" vertex="1" parent="1">
          <mxGeometry x="90" y="1190" width="30" height="60" as="geometry" />
        </mxCell>
        <mxCell id="u7pCDF6_uqxXdPKDrsPi-59" value="1. 用户发起充值" style="verticalAlign=bottom;startArrow=oval;endArrow=block;startSize=8;shadow=0;strokeWidth=1;" edge="1" parent="1" source="u7pCDF6_uqxXdPKDrsPi-58" target="u7pCDF6_uqxXdPKDrsPi-52">
          <mxGeometry relative="1" as="geometry">
            <mxPoint x="190" y="1230" as="sourcePoint" />
          </mxGeometry>
        </mxCell>
        <mxCell id="u7pCDF6_uqxXdPKDrsPi-60" value="" style="points=[];perimeter=orthogonalPerimeter;rounded=0;shadow=0;strokeWidth=1;" vertex="1" parent="1">
          <mxGeometry x="100" y="1241" width="10" height="849" as="geometry" />
        </mxCell>
        <mxCell id="u7pCDF6_uqxXdPKDrsPi-61" value="校验成功，展示充值界面" style="verticalAlign=bottom;endArrow=open;dashed=1;endSize=8;shadow=0;strokeWidth=1;" edge="1" parent="1">
          <mxGeometry relative="1" as="geometry">
            <mxPoint x="110" y="1306" as="targetPoint" />
            <mxPoint x="250" y="1306" as="sourcePoint" />
          </mxGeometry>
        </mxCell>
        <mxCell id="u7pCDF6_uqxXdPKDrsPi-62" value="2. 输入金额，下单" style="verticalAlign=bottom;startArrow=oval;endArrow=block;startSize=8;shadow=0;strokeWidth=1;" edge="1" parent="1">
          <mxGeometry relative="1" as="geometry">
            <mxPoint x="120" y="1350" as="sourcePoint" />
            <mxPoint x="250" y="1350" as="targetPoint" />
          </mxGeometry>
        </mxCell>
        <mxCell id="u7pCDF6_uqxXdPKDrsPi-63" value="支付确认，选择付款方式" style="verticalAlign=bottom;endArrow=open;dashed=1;endSize=8;shadow=0;strokeWidth=1;" edge="1" parent="1">
          <mxGeometry relative="1" as="geometry">
            <mxPoint x="110" y="1441" as="targetPoint" />
            <mxPoint x="250" y="1441" as="sourcePoint" />
          </mxGeometry>
        </mxCell>
        <mxCell id="u7pCDF6_uqxXdPKDrsPi-64" value="下单&amp;nbsp;&lt;span style=&quot;color: rgb(6 , 125 , 23) ; font-family: &amp;#34;jetbrains mono&amp;#34; , monospace ; font-size: 9.8pt&quot;&gt;/recharge 生成预订单号&lt;/span&gt;" style="endArrow=classic;html=1;rounded=0;exitX=1.2;exitY=0.063;exitDx=0;exitDy=0;exitPerimeter=0;entryX=1.2;entryY=0.184;entryDx=0;entryDy=0;entryPerimeter=0;" edge="1" parent="1">
          <mxGeometry width="50" height="50" relative="1" as="geometry">
            <mxPoint x="264" y="1364.94" as="sourcePoint" />
            <mxPoint x="264" y="1410.92" as="targetPoint" />
            <Array as="points">
              <mxPoint x="332" y="1365" />
              <mxPoint x="332" y="1411" />
            </Array>
          </mxGeometry>
        </mxCell>
        <mxCell id="u7pCDF6_uqxXdPKDrsPi-65" value="3. 用户选择扫码支付，点“支付”按钮" style="verticalAlign=bottom;startArrow=oval;endArrow=block;startSize=8;shadow=0;strokeWidth=1;" edge="1" parent="1" target="u7pCDF6_uqxXdPKDrsPi-54">
          <mxGeometry relative="1" as="geometry">
            <mxPoint x="120" y="1490" as="sourcePoint" />
            <mxPoint x="520" y="1490" as="targetPoint" />
          </mxGeometry>
        </mxCell>
        <mxCell id="u7pCDF6_uqxXdPKDrsPi-66" value="" style="endArrow=classic;html=1;rounded=0;exitX=0.498;exitY=0.417;exitDx=0;exitDy=0;exitPerimeter=0;" edge="1" parent="1" target="u7pCDF6_uqxXdPKDrsPi-69" source="u7pCDF6_uqxXdPKDrsPi-54">
          <mxGeometry width="50" height="50" relative="1" as="geometry">
            <mxPoint x="580" y="1506" as="sourcePoint" />
            <mxPoint x="800" y="1506" as="targetPoint" />
            <Array as="points" />
          </mxGeometry>
        </mxCell>
        <mxCell id="u7pCDF6_uqxXdPKDrsPi-67" value="/payment/checkAndPay 调用银联生成付款二维码" style="edgeLabel;html=1;align=center;verticalAlign=middle;resizable=0;points=[];" vertex="1" connectable="0" parent="u7pCDF6_uqxXdPKDrsPi-66">
          <mxGeometry x="0.0069" y="4" relative="1" as="geometry">
            <mxPoint x="-3" y="-8" as="offset" />
          </mxGeometry>
        </mxCell>
        <mxCell id="u7pCDF6_uqxXdPKDrsPi-68" value="第三方支付（银联）" style="shape=umlLifeline;perimeter=lifelinePerimeter;container=1;collapsible=0;recursiveResize=0;rounded=0;shadow=0;strokeWidth=1;" vertex="1" parent="1">
          <mxGeometry x="780" y="1150" width="180" height="600" as="geometry" />
        </mxCell>
        <mxCell id="u7pCDF6_uqxXdPKDrsPi-69" value="" style="points=[];perimeter=orthogonalPerimeter;rounded=0;shadow=0;strokeWidth=1;" vertex="1" parent="u7pCDF6_uqxXdPKDrsPi-68">
          <mxGeometry x="82" y="80" width="10" height="520" as="geometry" />
        </mxCell>
        <mxCell id="u7pCDF6_uqxXdPKDrsPi-70" value="生成二维码展示，待用户付款" style="verticalAlign=bottom;endArrow=open;dashed=1;endSize=8;shadow=0;strokeWidth=1;" edge="1" parent="u7pCDF6_uqxXdPKDrsPi-68" source="u7pCDF6_uqxXdPKDrsPi-68">
          <mxGeometry relative="1" as="geometry">
            <mxPoint x="-210" y="390" as="targetPoint" />
            <mxPoint x="40" y="390" as="sourcePoint" />
          </mxGeometry>
        </mxCell>
        <mxCell id="u7pCDF6_uqxXdPKDrsPi-71" value="4. 用户向第三方支付扫码付款" style="verticalAlign=bottom;startArrow=oval;endArrow=block;startSize=8;shadow=0;strokeWidth=1;" edge="1" parent="1" target="u7pCDF6_uqxXdPKDrsPi-68">
          <mxGeometry relative="1" as="geometry">
            <mxPoint x="110" y="1660" as="sourcePoint" />
            <mxPoint x="510" y="1660" as="targetPoint" />
          </mxGeometry>
        </mxCell>
        <mxCell id="u7pCDF6_uqxXdPKDrsPi-72" value="" style="endArrow=classic;html=1;rounded=0;exitX=0.504;exitY=0.977;exitDx=0;exitDy=0;exitPerimeter=0;" edge="1" parent="1" source="u7pCDF6_uqxXdPKDrsPi-68">
          <mxGeometry width="50" height="50" relative="1" as="geometry">
            <mxPoint x="480" y="1600" as="sourcePoint" />
            <mxPoint x="570" y="1736" as="targetPoint" />
          </mxGeometry>
        </mxCell>
        <mxCell id="u7pCDF6_uqxXdPKDrsPi-73" value="银联支付结果回调&amp;nbsp;&lt;span style=&quot;color: rgb(6 , 125 , 23) ; background-color: rgb(255 , 255 , 255) ; font-family: &amp;#34;jetbrains mono&amp;#34; , monospace ; font-size: 9.8pt&quot;&gt;/unionpay/unionpayBack&lt;/span&gt;" style="text;html=1;align=center;verticalAlign=middle;resizable=0;points=[];autosize=1;strokeColor=none;fillColor=none;" vertex="1" parent="1">
          <mxGeometry x="523" y="1714" width="290" height="20" as="geometry" />
        </mxCell>
        <mxCell id="u7pCDF6_uqxXdPKDrsPi-74" value="CGWebMgr" style="shape=umlLifeline;perimeter=lifelinePerimeter;container=1;collapsible=0;recursiveResize=0;rounded=0;shadow=0;strokeWidth=1;" vertex="1" parent="1">
          <mxGeometry x="1001" y="1150" width="125" height="940" as="geometry" />
        </mxCell>
        <mxCell id="u7pCDF6_uqxXdPKDrsPi-75" value="" style="points=[];perimeter=orthogonalPerimeter;rounded=0;shadow=0;strokeWidth=1;" vertex="1" parent="u7pCDF6_uqxXdPKDrsPi-74">
          <mxGeometry x="50" y="80" width="10" height="860" as="geometry" />
        </mxCell>
        <mxCell id="u7pCDF6_uqxXdPKDrsPi-76" value="返回状态 “S” 表示成功" style="verticalAlign=bottom;endArrow=open;dashed=1;endSize=8;shadow=0;strokeWidth=1;" edge="1" parent="u7pCDF6_uqxXdPKDrsPi-74">
          <mxGeometry relative="1" as="geometry">
            <mxPoint x="60" y="800" as="targetPoint" />
            <mxPoint x="305" y="800" as="sourcePoint" />
          </mxGeometry>
        </mxCell>
        <mxCell id="u7pCDF6_uqxXdPKDrsPi-77" value="" style="endArrow=classic;html=1;rounded=0;entryX=1.333;entryY=0.822;entryDx=0;entryDy=0;entryPerimeter=0;" edge="1" parent="1">
          <mxGeometry width="50" height="50" relative="1" as="geometry">
            <mxPoint x="564.9166666666665" y="1870" as="sourcePoint" />
            <mxPoint x="1060.08" y="1870" as="targetPoint" />
            <Array as="points" />
          </mxGeometry>
        </mxCell>
        <mxCell id="u7pCDF6_uqxXdPKDrsPi-78" value="调用SAP进行保证金收款&amp;nbsp;/sap_interface/onlinePaymentOrDepositReceipt&amp;nbsp;" style="edgeLabel;html=1;align=center;verticalAlign=middle;resizable=0;points=[];" vertex="1" connectable="0" parent="u7pCDF6_uqxXdPKDrsPi-77">
          <mxGeometry x="0.0069" y="4" relative="1" as="geometry">
            <mxPoint x="-3" y="-8" as="offset" />
          </mxGeometry>
        </mxCell>
        <mxCell id="u7pCDF6_uqxXdPKDrsPi-79" value="SAP处理结果" style="verticalAlign=bottom;endArrow=open;dashed=1;endSize=8;shadow=0;strokeWidth=1;" edge="1" parent="1" source="u7pCDF6_uqxXdPKDrsPi-75">
          <mxGeometry relative="1" as="geometry">
            <mxPoint x="570" y="1972" as="targetPoint" />
            <mxPoint x="1037" y="1972" as="sourcePoint" />
          </mxGeometry>
        </mxCell>
        <mxCell id="u7pCDF6_uqxXdPKDrsPi-80" value="充值成功" style="verticalAlign=bottom;endArrow=open;dashed=1;endSize=8;shadow=0;strokeWidth=1;entryX=1.233;entryY=0.894;entryDx=0;entryDy=0;entryPerimeter=0;" edge="1" parent="1" source="u7pCDF6_uqxXdPKDrsPi-55" target="u7pCDF6_uqxXdPKDrsPi-60">
          <mxGeometry relative="1" as="geometry">
            <mxPoint x="120" y="2000.0469999999998" as="targetPoint" />
            <mxPoint x="517" y="2000" as="sourcePoint" />
          </mxGeometry>
        </mxCell>
        <mxCell id="u7pCDF6_uqxXdPKDrsPi-81" value="SAP" style="shape=umlLifeline;perimeter=lifelinePerimeter;container=1;collapsible=0;recursiveResize=0;rounded=0;shadow=0;strokeWidth=1;" vertex="1" parent="1">
          <mxGeometry x="1250" y="1150" width="125" height="940" as="geometry" />
        </mxCell>
        <mxCell id="u7pCDF6_uqxXdPKDrsPi-82" value="" style="points=[];perimeter=orthogonalPerimeter;rounded=0;shadow=0;strokeWidth=1;" vertex="1" parent="u7pCDF6_uqxXdPKDrsPi-81">
          <mxGeometry x="48" y="80" width="10" height="860" as="geometry" />
        </mxCell>
        <mxCell id="u7pCDF6_uqxXdPKDrsPi-83" value="" style="endArrow=classic;html=1;rounded=0;entryX=0.9;entryY=0.859;entryDx=0;entryDy=0;entryPerimeter=0;" edge="1" parent="1">
          <mxGeometry width="50" height="50" relative="1" as="geometry">
            <mxPoint x="1062.6666666666665" y="1908.7399999999998" as="sourcePoint" />
            <mxPoint x="1307" y="1908.7399999999998" as="targetPoint" />
          </mxGeometry>
        </mxCell>
        <mxCell id="u7pCDF6_uqxXdPKDrsPi-84" value="&lt;pre style=&quot;background-color: #ffffff ; color: #080808 ; font-family: &amp;#34;jetbrains mono&amp;#34; , monospace ; font-size: 9.8pt&quot;&gt;&lt;span style=&quot;color: #000000&quot;&gt;stub&lt;/span&gt;.ZRFC_GW_2_SAP_HPFF_BZJSK&lt;/pre&gt;" style="text;html=1;align=center;verticalAlign=middle;resizable=0;points=[];autosize=1;strokeColor=none;fillColor=none;" vertex="1" parent="1">
          <mxGeometry x="1060" y="1855" width="240" height="50" as="geometry" />
        </mxCell>
        <mxCell id="u7pCDF6_uqxXdPKDrsPi-87" value="如果是物流订单type = 3" style="text;html=1;strokeColor=#FF0000;fillColor=none;align=center;verticalAlign=middle;whiteSpace=wrap;rounded=0;shadow=0;" vertex="1" parent="1">
          <mxGeometry x="422" y="1367" width="80" height="30" as="geometry" />
        </mxCell>
        <mxCell id="u7pCDF6_uqxXdPKDrsPi-90" value="同一个回调地址，接入不同的第三方支付。&lt;br&gt;先根据回传的订单号transNum获取对应的预订单记录，根据关联的业务orderType，处理不同的流程" style="text;html=1;strokeColor=#FF0000;fillColor=none;align=center;verticalAlign=middle;whiteSpace=wrap;rounded=0;" vertex="1" parent="1">
          <mxGeometry x="878" y="1670" width="160" height="120" as="geometry" />
        </mxCell>
        <mxCell id="u7pCDF6_uqxXdPKDrsPi-88" value="&lt;div style=&quot;text-align: left&quot;&gt;&lt;br class=&quot;Apple-interchange-newline&quot;&gt;如果是物流订单，type = 3&lt;/div&gt;&lt;div style=&quot;text-align: left&quot;&gt;&lt;span&gt;生成丰朗银联商务号的二维码，设置回调&lt;/span&gt;&lt;/div&gt;" style="text;html=1;strokeColor=#FF0000;fillColor=none;align=center;verticalAlign=middle;whiteSpace=wrap;rounded=0;" vertex="1" parent="1">
          <mxGeometry x="574" y="1441" width="225" height="30" as="geometry" />
        </mxCell>
      </root>
    </mxGraphModel>
  </diagram>
</mxfile>
